<?xml version="1.0" encoding="UTF-8"?> <svg xmlns="http://www.w3.org/2000/svg" width="216" height="26" viewBox="0 0 216 26" fill="none"><ellipse cx="32.3475" cy="13" rx="13.1523" ry="13" fill="#FF5622"></ellipse><ellipse cx="13.1522" cy="13" rx="13.1523" ry="13" fill="#2252FF"></ellipse><path d="M37.6794 12.9768V13.1969C37.5854 13.315 37.4829 13.4279 37.3727 13.5348C35.4581 15.2184 33.5412 16.8998 31.6221 18.5788C31.5696 18.6298 31.5119 18.6765 31.4497 18.7183C31.3867 18.7577 31.314 18.7833 31.2374 18.793C31.1609 18.8027 31.0828 18.7961 31.0097 18.7739C30.9367 18.7517 30.8707 18.7145 30.8174 18.6653C30.764 18.6162 30.7249 18.5565 30.7032 18.4914C30.6837 18.421 30.6743 18.3487 30.6752 18.2763V16.7832C30.6752 16.5347 30.5353 16.4089 30.2454 16.405C30.2029 16.403 30.1603 16.403 30.1178 16.405H25.1484C24.5205 16.405 23.8892 16.405 23.2602 16.405H22.2361C21.606 16.405 20.9747 16.405 20.3457 16.405H15.383C15.3408 16.403 15.2986 16.403 15.2565 16.405C14.9644 16.405 14.8256 16.5347 14.8256 16.7832V18.2763C14.8245 18.3487 14.8147 18.4208 14.7965 18.4914C14.7747 18.5564 14.7356 18.6159 14.6823 18.6649C14.6291 18.7139 14.5633 18.7511 14.4903 18.7733C14.4174 18.7955 14.3395 18.8021 14.2631 18.7925C14.1867 18.7829 14.114 18.7575 14.0511 18.7183C13.9879 18.6761 13.9288 18.6294 13.8742 18.5788C11.9603 16.8978 10.0434 15.2164 8.12357 13.5348C8.01581 13.4269 7.91457 13.3141 7.82025 13.1969V12.9768C7.91986 12.8698 8.00605 12.7509 8.11573 12.6537C10.0423 10.9602 11.9704 9.26836 13.9 7.57817C13.9993 7.4869 14.125 7.42103 14.2637 7.38761C14.5704 7.32966 14.8166 7.55264 14.8234 7.86206V9.35219C14.8234 9.40621 14.8234 9.45042 14.8234 9.50346C14.8332 9.57431 14.8701 9.64014 14.928 9.69025C14.986 9.74036 15.0615 9.77181 15.1423 9.77948C15.2084 9.77948 15.2778 9.77948 15.3427 9.77948H30.1503C30.2163 9.77948 30.2857 9.77948 30.3517 9.77948C30.4333 9.77217 30.5097 9.74096 30.5686 9.69089C30.6275 9.64081 30.6654 9.57478 30.6763 9.50346C30.6763 9.45238 30.6763 9.40523 30.6763 9.35219V7.86206C30.6763 7.55264 30.9304 7.32966 31.2359 7.38761C31.3761 7.42139 31.5035 7.48714 31.6053 7.57817C33.5319 9.26444 35.4581 10.9563 37.3839 12.6537C37.4898 12.756 37.5884 12.864 37.6794 12.9768Z" fill="white"></path><path d="M89.6497 24.2207C89.0637 24.2206 88.4853 24.0854 87.9584 23.8252C87.4315 23.5649 86.9698 23.1865 86.6084 22.7186L78.398 12.0643C78.3104 11.9506 78.1901 11.8674 78.0537 11.8264C77.9173 11.7854 77.7717 11.7886 77.6372 11.8356C77.5027 11.8826 77.386 11.971 77.3034 12.0884C77.2208 12.2059 77.1765 12.3466 77.1765 12.4909V21.3055C77.1765 22.0787 76.8737 22.8202 76.3348 23.3669C75.7958 23.9136 75.0648 24.2207 74.3026 24.2207C73.9251 24.2208 73.5513 24.1455 73.2025 23.9991C72.8537 23.8526 72.5368 23.6379 72.2698 23.3672C72.0028 23.0965 71.791 22.7751 71.6465 22.4214C71.502 22.0676 71.4277 21.6884 71.4277 21.3055V5.70465C71.4279 4.66489 71.8352 3.66777 72.5599 2.93245C73.2847 2.19712 74.2676 1.78376 75.2926 1.78321C75.8801 1.7825 76.4601 1.9177 76.9884 2.17854C77.5166 2.43938 77.9793 2.81898 78.3412 3.28847L86.5443 13.9323C86.6315 14.0455 86.7512 14.1285 86.8869 14.1697C87.0226 14.2109 87.1676 14.2083 87.3017 14.1622C87.4359 14.1161 87.5526 14.0289 87.6358 13.9126C87.7189 13.7963 87.7644 13.6566 87.7658 13.513V4.70778C87.7647 4.32429 87.8382 3.94435 87.9821 3.58971C88.1259 3.23507 88.3373 2.9127 88.6042 2.64104C88.871 2.36939 89.1881 2.15379 89.5372 2.00659C89.8863 1.85939 90.2606 1.78348 90.6387 1.78321C91.0162 1.78321 91.39 1.85864 91.7387 2.00521C92.0875 2.15177 92.4043 2.36659 92.6712 2.6374C92.9381 2.90821 93.1497 3.2297 93.2941 3.5835C93.4385 3.9373 93.5127 4.31649 93.5126 4.6994V20.3013C93.5126 20.8161 93.4126 21.3259 93.2184 21.8014C93.0241 22.277 92.7394 22.7091 92.3805 23.0731C92.0216 23.4371 91.5955 23.7257 91.1266 23.9226C90.6577 24.1195 90.1551 24.2208 89.6476 24.2207H89.6497Z" fill="#2253FF"></path><path d="M158.602 20.2927L152.841 4.76205C152.515 3.88892 151.936 3.13674 151.179 2.60494C150.422 2.07314 149.525 1.78678 148.604 1.78372C147.684 1.78065 146.784 2.06102 146.024 2.58776C145.264 3.1145 144.679 3.86281 144.348 4.73374L138.446 20.3042C138.25 20.8249 138.206 21.3919 138.32 21.9372C138.434 22.4825 138.701 22.9827 139.089 23.3777C139.422 23.7174 139.833 23.9674 140.285 24.1053C140.737 24.2431 141.216 24.2643 141.679 24.167C142.141 24.0697 142.572 23.8569 142.933 23.5479C143.294 23.239 143.573 22.8436 143.745 22.3976L144.291 20.9908C144.37 20.7867 144.507 20.6114 144.686 20.4878C144.864 20.3642 145.075 20.298 145.291 20.2979H151.745C151.965 20.2976 152.179 20.366 152.36 20.494C152.54 20.6219 152.677 20.8031 152.751 21.0128L153.228 22.3221C153.431 22.8797 153.797 23.361 154.277 23.7014C154.757 24.0419 155.329 24.2252 155.915 24.2267C156.261 24.2265 156.604 24.1618 156.927 24.036C157.639 23.7645 158.214 23.2177 158.528 22.5158C158.842 21.8139 158.869 21.0143 158.602 20.2927ZM150.301 15.8524H146.788C146.734 15.853 146.681 15.8452 146.63 15.8293C146.512 15.7868 146.415 15.6987 146.36 15.5843C146.306 15.4699 146.298 15.3383 146.339 15.2182L148.106 10.0273C148.137 9.93136 148.198 9.84781 148.278 9.78858C148.359 9.72935 148.456 9.69747 148.556 9.69747C148.655 9.69747 148.752 9.72935 148.833 9.78858C148.914 9.84781 148.974 9.93136 149.005 10.0273L150.751 15.2182C150.768 15.268 150.778 15.3204 150.779 15.3733C150.778 15.501 150.727 15.6232 150.638 15.713C150.548 15.8028 150.427 15.8529 150.301 15.8524Z" fill="#2253FF"></path><path d="M211.385 16.2564C211.333 16.1796 211.287 16.0986 211.248 16.0143C211.139 15.7481 211.139 15.449 211.246 15.1821C211.353 14.9153 211.56 14.7024 211.822 14.5897C212.461 14.3242 213.044 13.9367 213.538 13.4482C214.705 12.2651 215.287 10.6808 215.284 8.69548C215.284 6.9596 214.78 5.45539 213.767 4.16815C212.515 2.57693 210.584 1.78097 207.973 1.78027H202.066C201.263 1.78277 200.495 2.10776 199.928 2.68403C199.361 3.26031 199.043 4.04088 199.043 4.85475V21.312C199.042 21.6944 199.116 22.0732 199.26 22.4265C199.405 22.7798 199.616 23.1007 199.883 23.3708C200.285 23.7784 200.797 24.056 201.354 24.1686C201.912 24.2812 202.489 24.2237 203.014 24.0034C203.54 23.7831 203.989 23.4098 204.305 22.9308C204.621 22.4518 204.79 21.8885 204.791 21.312V19.3204C204.791 18.2365 206.19 17.8214 206.769 18.7313L209.43 22.9305C209.681 23.3272 210.027 23.6535 210.435 23.8793C210.844 24.1052 211.301 24.2233 211.766 24.223C214.075 24.223 215.377 21.5468 213.978 19.6841L211.385 16.2564ZM208.479 11.0603C207.951 11.5729 207.076 11.836 205.863 11.836H205.385C205.307 11.8359 205.23 11.82 205.158 11.7895C205.086 11.7589 205.02 11.7141 204.965 11.6578C204.911 11.6015 204.867 11.5347 204.838 11.4613C204.809 11.3879 204.794 11.3093 204.795 11.2301V6.83382C204.795 6.75504 204.81 6.67698 204.839 6.60412C204.869 6.53126 204.912 6.46503 204.967 6.40923C205.022 6.35342 205.087 6.30915 205.159 6.27894C205.23 6.24873 205.307 6.23318 205.385 6.23318H205.863C207.062 6.23318 207.937 6.48685 208.478 7.00573C208.756 7.25997 208.977 7.57174 209.126 7.92001C209.275 8.26828 209.349 8.64495 209.343 9.02463C209.349 9.40661 209.275 9.78554 209.126 10.1364C208.977 10.4873 208.757 10.8022 208.479 11.0603Z" fill="#2253FF"></path><path d="M67.0495 19.861L62.1501 13.5182C62.0348 13.3685 61.9721 13.184 61.9721 12.9941C61.9721 12.8041 62.0348 12.6196 62.1501 12.4699L67.0391 6.13965C68.3991 4.37757 67.1621 1.79681 64.9568 1.79681C64.5584 1.79757 64.1654 1.89005 63.8074 2.06727C63.4494 2.24449 63.1357 2.50183 62.89 2.81989L57.692 9.54117C57.6533 9.59687 57.5979 9.63834 57.5341 9.65934C57.4702 9.68035 57.4013 9.67975 57.3378 9.65765C57.2743 9.63555 57.2196 9.59313 57.1819 9.53678C57.1442 9.48042 57.1256 9.41318 57.1288 9.34515V4.56835C57.1288 3.8269 56.8384 3.11581 56.3215 2.59153C55.8047 2.06725 55.1036 1.77271 54.3727 1.77271L54.166 1.77271C53.4351 1.7727 52.7341 2.06707 52.2171 2.5911C51.7001 3.11512 51.4094 3.82593 51.4089 4.5673V21.4229C51.4086 22.1635 51.698 22.8739 52.2136 23.3982C52.7291 23.9225 53.4287 24.2179 54.1588 24.2196H54.3654C54.7274 24.2196 55.0858 24.1473 55.4202 24.0068C55.7545 23.8663 56.0584 23.6604 56.3143 23.4008C56.5702 23.1412 56.7732 22.833 56.9117 22.4938C57.0502 22.1546 57.1215 21.7911 57.1215 21.424V16.6346C57.1216 16.5681 57.1421 16.5033 57.1801 16.4491C57.2182 16.395 57.272 16.3543 57.3339 16.3326C57.3959 16.3109 57.463 16.3093 57.5259 16.3282C57.5888 16.347 57.6443 16.3852 57.6847 16.4375L62.8817 23.1682C63.1285 23.4872 63.4433 23.7454 63.8025 23.9233C64.1617 24.1012 64.556 24.1943 64.9558 24.1955C67.1693 24.2049 68.4104 21.6231 67.0495 19.861Z" fill="#2253FF"></path><path d="M170.606 6.6271H168.89C168.698 6.6271 168.514 6.7044 168.378 6.84201C168.243 6.97962 168.167 7.16626 168.167 7.36086V21.8485C168.167 22.16 168.106 22.4684 167.989 22.7562C167.871 23.044 167.699 23.3055 167.482 23.5258C167.265 23.7461 167.007 23.9209 166.724 24.0401C166.44 24.1593 166.136 24.2207 165.829 24.2207H164.756C164.136 24.2207 163.541 23.9708 163.102 23.526C162.664 23.0811 162.417 22.4778 162.417 21.8485V7.35667C162.417 7.16206 162.34 6.97543 162.205 6.83782C162.069 6.70021 161.885 6.6229 161.693 6.6229H160.083C159.463 6.62291 158.868 6.37302 158.429 5.92818C157.99 5.48334 157.744 4.87998 157.744 4.25075V4.15221C157.745 3.52353 157.992 2.92097 158.43 2.47682C158.869 2.03266 159.463 1.7832 160.083 1.7832H170.606C170.914 1.7832 171.218 1.8446 171.502 1.96387C171.785 2.08315 172.043 2.25798 172.26 2.47836C172.478 2.69875 172.65 2.96038 172.767 3.2483C172.885 3.53622 172.945 3.8448 172.945 4.15641V4.25494C172.945 4.56646 172.884 4.87492 172.767 5.16273C172.649 5.45053 172.477 5.71203 172.26 5.93231C172.043 6.15258 171.785 6.32732 171.501 6.44653C171.218 6.56574 170.913 6.6271 170.606 6.6271Z" fill="#2253FF"></path><path d="M139.654 5.80319L132.652 22.4701C132.433 22.991 132.068 23.4351 131.603 23.7471C131.137 24.0591 130.591 24.2253 130.033 24.2249H129.337C128.776 24.2248 128.228 24.057 127.761 23.7424C127.294 23.4279 126.929 22.9806 126.712 22.4565L119.812 5.79061C119.63 5.35125 119.557 4.873 119.602 4.3985C119.646 3.924 119.806 3.46801 120.066 3.07121C120.326 2.67441 120.679 2.34913 121.094 2.12439C121.508 1.89965 121.971 1.78244 122.441 1.78321H122.473C123.044 1.78373 123.601 1.95831 124.073 2.2843C124.545 2.61029 124.91 3.07263 125.119 3.61133L129.409 14.5947C129.435 14.6613 129.48 14.7184 129.538 14.7587C129.597 14.7989 129.666 14.8205 129.736 14.8205C129.807 14.8205 129.876 14.7989 129.935 14.7587C129.993 14.7184 130.038 14.6613 130.064 14.5947L134.392 3.60085C134.603 3.06427 134.968 2.60427 135.44 2.28025C135.911 1.95624 136.468 1.7831 137.038 1.78321C137.508 1.78303 137.972 1.90127 138.386 2.12734C138.801 2.35341 139.154 2.68025 139.413 3.07858C139.673 3.47692 139.831 3.93432 139.873 4.40982C139.915 4.88532 139.841 5.36407 139.656 5.80319H139.654Z" fill="#2253FF"></path><path d="M107.648 1.79053C105.461 1.79053 103.323 2.44834 101.505 3.68079C99.6866 4.91323 98.2694 6.66495 97.4325 8.71442C96.5956 10.7639 96.3766 13.0191 96.8032 15.1948C97.2299 17.3705 98.283 19.369 99.8294 20.9376C101.376 22.5062 103.346 23.5745 105.491 24.0072C107.636 24.44 109.859 24.2179 111.88 23.369C113.9 22.5201 115.627 21.0825 116.842 19.238C118.057 17.3935 118.706 15.225 118.706 13.0066C118.706 11.5335 118.421 10.0746 117.866 8.71345C117.31 7.35227 116.496 6.11549 115.469 5.07381C114.442 4.03213 113.223 3.20599 111.881 2.64262C110.539 2.07925 109.101 1.7897 107.648 1.79053ZM107.648 18.4868C106.578 18.487 105.532 18.1654 104.643 17.5626C103.753 16.9598 103.06 16.103 102.65 15.1004C102.241 14.0979 102.134 12.9946 102.342 11.9303C102.551 10.8659 103.066 9.8882 103.823 9.12084C104.579 8.35348 105.543 7.83093 106.592 7.61926C107.642 7.4076 108.729 7.51634 109.718 7.93173C110.706 8.34711 111.551 9.05049 112.145 9.95289C112.739 10.8553 113.056 11.9162 113.056 13.0014C113.056 14.456 112.486 15.8511 111.472 16.8798C110.459 17.9085 109.083 18.4865 107.649 18.4868H107.648Z" fill="#2253FF"></path><path d="M185.058 1.79053C182.871 1.79053 180.733 2.44834 178.915 3.68079C177.097 4.91323 175.679 6.66495 174.842 8.71442C174.005 10.7639 173.786 13.0191 174.213 15.1948C174.64 17.3705 175.693 19.369 177.239 20.9376C178.786 22.5062 180.756 23.5745 182.901 24.0072C185.046 24.44 187.269 24.2179 189.29 23.369C191.31 22.5201 193.037 21.0825 194.252 19.238C195.467 17.3935 196.116 15.225 196.116 13.0066C196.116 11.5335 195.831 10.0747 195.275 8.71361C194.72 7.3525 193.905 6.11577 192.878 5.07412C191.852 4.03247 190.632 3.20632 189.29 2.6429C187.949 2.07948 186.51 1.78984 185.058 1.79053ZM185.058 18.4868C183.988 18.4872 182.942 18.1658 182.052 17.5631C181.163 16.9605 180.469 16.1037 180.059 15.1011C179.65 14.0986 179.542 12.9953 179.751 11.9309C179.96 10.8665 180.475 9.88867 181.231 9.12121C181.988 8.35375 182.951 7.83109 184.001 7.61934C185.05 7.40759 186.138 7.51627 187.126 7.93163C188.115 8.34698 188.959 9.05036 189.554 9.95279C190.148 10.8552 190.465 11.9162 190.465 13.0014C190.465 14.456 189.895 15.8511 188.881 16.8798C187.867 17.9085 186.492 18.4865 185.058 18.4868Z" fill="#2253FF"></path></svg> 